<svg version="1.2" xmlns="http://www.w3.org/2000/svg" viewBox="0 0 153 153" width="153" height="153"><style>.a{fill:#00833e}</style><path class="a" d="m65.3 94.5c-32.7-19.4-33.6-41.8-32.7-53q0-0.1 0-0.2-0.1-0.1-0.2-0.1 0 0-0.1 0-0.1 0.1-0.1 0.2c-2.7 12.9-4.1 41.3 26.5 58.3 49.6 26.1 43.7 44.5 43.7 44.5 0 0 8.9-24.1-37.1-49.7z"/><path class="a" d="m61.4 108.6c-32.2-16.4-34.2-41.4-34.5-49.3q-0.1 0.5-0.2 1.1-0.1 0.5-0.2 1.1-0.1 0.5-0.2 1.1-0.1 0.6-0.1 1.1c-1 11 0.5 34.1 29.8 49.8 44 19.8 40.1 36.1 40.1 36.1 0 0 6.6-19.9-34.7-41z"/><path class="a" d="m131.3 77.9l-20-35.4 6.1-21.2c-50.3-7.1-59.5 16.3-62.4 23.7-1.7 4.3-2.6 10.9-3 14.5q1 1.3 2 2.4 1 1.2 2.1 2.3 1 1.1 2.1 2.2 1.1 1.1 2.3 2.1 0-2.2 0.2-4.3 0.3-2.1 0.8-4.1 0.5-2.1 1.2-4.1 0.8-2 1.8-3.8c11.2-19.5 38.1-14.4 38.1-14.4-26.5-0.8-40.4 18.4-37.1 39.8-25.5-18-28-38.7-26.8-50.4q0-0.1 0-0.2-0.1-0.1-0.2-0.1-0.1-0.1-0.2 0-0.1 0.1-0.1 0.2c-3 14.5-3.2 41.8 26 59.2 50.5 30 43.8 48.7 43.8 48.7q0 0 0.1-0.2c1.7-2.8 16.6-28.7-5.5-43.3-19.6-12.9-12.9-28.3-12.9-28.3-2.2 14.1 17.7 15.8 17.7 15.8 4.7 8.5 30.8 11.3 23.9-1.1z"/></svg>